<svg width="520" height="520" viewBox="0 0 520 520" fill="none" xmlns="http://www.w3.org/2000/svg">
  <g stroke="rgba(0,0,0,0.06)" stroke-width="1" stroke-linecap="round" stroke-linejoin="round">
    <path d="M338 86c-34 18-56 54-58 92-2 36 14 72 40 98-20 8-42 10-62 5-24-6-44-22-54-44-10-22-8-48 4-68 12-20 34-34 58-36 12-1 24 1 36 6"/>
    <path d="M188 246c8 24 28 42 52 48 24 6 50 0 70-14 20-14 32-36 34-60"/>
    <path d="M70 110c26 40 84 50 128 38 44-12 78-42 112-70"/>
    <path d="M118 420c52-10 98-40 132-80 34-40 58-90 94-128"/>
  </g>
</svg>
