<svg width="520" height="520" viewBox="0 0 520 520" fill="none" xmlns="http://www.w3.org/2000/svg">
  <g stroke="rgba(0,0,0,0.07)" stroke-width="1" stroke-linecap="round" stroke-linejoin="round">
    <path d="M360 92c-38 20-62 58-64 98-2 38 16 76 46 102-22 10-46 12-68 6-26-7-48-24-60-48-12-24-10-52 4-74 14-22 38-38 66-40 14-1 28 1 42 7"/>
    <path d="M200 262c10 26 32 46 58 52 26 6 54-1 76-16 22-15 36-40 38-66"/>
    <path d="M74 126c28 42 90 54 138 40 48-14 86-48 122-78"/>
    <path d="M128 436c58-12 110-44 148-88 38-44 66-98 104-138"/>
  </g>
</svg>
